<?xml version="1.0" standalone="no"?>
<!DOCTYPE svg PUBLIC "-//W3C//DTD SVG 20010904//EN"
 "http://www.w3.org/TR/2001/REC-SVG-20010904/DTD/svg10.dtd">
<svg version="1.0" xmlns="http://www.w3.org/2000/svg"
 width="700.000000pt" height="700.000000pt" viewBox="0 0 700.000000 700.000000"
 preserveAspectRatio="xMidYMid meet">
<metadata>
Created by potrace 1.14, written by Peter Selinger 2001-2017
</metadata>
<g transform="translate(0.000000,700.000000) scale(0.100000,-0.100000)"
fill="#000000" stroke="none">
<path d="M10 3505 l0 -3495 3495 0 3495 0 0 3495 0 3495 -3495 0 -3495 0 0
-3495z m3980 1960 l0 -285 390 0 390 0 0 -72 -1 -73 -169 -194 c-94 -106 -168
-196 -166 -200 93 -151 506 -844 506 -847 0 -2 -105 -3 -232 -2 l-233 3 -150
282 c-82 155 -153 284 -156 288 -3 3 -45 -37 -93 -90 l-86 -95 0 -195 0 -195
-195 0 -195 0 0 980 0 980 195 0 195 0 0 -285z m-2000 -20 l0 -195 -250 0
-250 0 0 -730 0 -730 -205 0 -205 0 0 730 0 730 -250 0 -250 0 0 195 0 195
705 0 705 0 0 -195z m864 -269 c137 -47 220 -115 271 -222 43 -91 47 -127 54
-468 l6 -330 97 -65 c53 -37 97 -69 98 -74 0 -7 -173 -271 -190 -291 -5 -4
-92 55 -194 133 -102 77 -188 141 -191 141 -2 0 -12 -17 -20 -37 -75 -179
-353 -261 -588 -173 -193 72 -290 338 -198 544 l20 46 381 0 382 0 -4 198 c-3
197 -3 199 -30 240 -38 57 -77 75 -174 80 -122 7 -177 -13 -260 -92 l-67 -64
-113 101 c-63 56 -114 104 -114 108 0 17 108 124 159 158 126 84 204 101 426
97 155 -2 177 -5 249 -30z m2990 14 c108 -27 190 -74 269 -152 l67 -67 0 -176
0 -175 -386 0 -386 0 4 -182 c3 -172 5 -186 28 -232 49 -96 131 -137 272 -137
132 0 209 32 309 128 l37 35 96 -120 c53 -65 96 -124 96 -130 0 -13 -80 -80
-145 -121 -70 -44 -218 -89 -337 -102 -371 -41 -648 138 -740 476 -31 116 -31
383 0 500 65 241 215 397 436 455 100 27 277 27 380 0z m-714 -2427 l0 -798
105 -69 c65 -42 102 -73 98 -80 -40 -64 -196 -286 -201 -286 -4 0 -95 68 -202
150 -107 82 -197 149 -200 150 -3 0 -15 -22 -27 -48 -72 -158 -243 -240 -440
-214 -222 30 -360 168 -425 427 -20 79 -23 115 -23 300 0 185 3 221 23 300 46
182 136 310 261 373 82 41 156 55 266 50 79 -3 101 -8 160 -37 83 -41 139 -95
174 -170 l26 -56 3 403 2 402 200 0 200 0 0 -797z m-3910 250 c139 -240 294
-522 345 -627 l93 -191 1 628 1 627 190 0 190 0 0 -930 0 -930 -219 0 -219 0
-248 427 c-136 236 -292 518 -345 628 l-98 200 -3 -625 -3 -625 -187 -3 -188
-2 0 735 0 735 -90 0 -90 0 0 195 0 195 309 0 308 0 253 -437z m1953 -27 c216
-73 348 -231 403 -481 28 -127 24 -333 -9 -457 -35 -134 -86 -227 -172 -314
-117 -119 -247 -167 -450 -168 -204 -1 -331 47 -456 173 -123 123 -183 275
-196 493 -17 295 77 540 259 674 112 82 237 115 418 110 103 -3 139 -8 203
-30z m3070 15 c133 -34 232 -95 312 -191 l35 -42 0 -174 0 -174 -391 0 -391 0
4 -167 c4 -147 7 -174 27 -218 50 -113 132 -159 281 -158 122 0 183 23 277
102 l70 58 96 -121 96 -121 -42 -43 c-117 -120 -308 -186 -537 -186 -147 0
-216 15 -336 74 -149 73 -255 210 -306 395 -19 69 -22 106 -22 260 0 154 3
191 22 258 33 121 78 203 156 285 79 83 185 143 296 166 99 22 262 20 353 -3z"/>
<path d="M4180 2290 l0 -290 295 0 295 0 0 290 0 290 -295 0 -295 0 0 -290z"/>
<path d="M2650 2295 l0 -295 295 0 295 0 0 295 0 295 -295 0 -295 0 0 -295z"/>
</g>
</svg>
