<svg id="Layer_1" data-name="Layer 1" xmlns="http://www.w3.org/2000/svg" viewBox="0 0 152.73 25.6"><defs><style>.cls-1{isolation:isolate;}.cls-2{fill:#4c7ef2;}</style></defs><g class="cls-1"><path class="cls-2" d="M32.64,13.2a6,6,0,0,0-1.87-4.78,8.33,8.33,0,0,0-5.61-1.64,9.23,9.23,0,0,0-4.4.89,7.84,7.84,0,0,0-2.69,2.47L21,12.76a6.55,6.55,0,0,1,1.44-1.44,3.91,3.91,0,0,1,2.34-.63,2.89,2.89,0,0,1,2.24.75,3,3,0,0,1,.66,2v3.75H18.15A5,5,0,0,0,17.4,20a5,5,0,0,0,1.41,3.69,5.44,5.44,0,0,0,4,1.4,6.06,6.06,0,0,0,3.37-.88A4,4,0,0,0,27.89,22H28l4.69,3.56,2.58-3.78L32.64,20Z"/><polygon class="cls-2" points="52.66 8.97 52.66 7.18 48.74 7.18 48.74 7.18 42.86 7.18 42.86 0 37.91 0 37.91 24.72 42.86 24.72 42.86 19.78 45.06 17.3 49.01 24.72 54.89 24.72 48.37 13.9 52.66 8.97"/><path class="cls-2" d="M67,20.6a4.58,4.58,0,0,1-2.5.61,3.8,3.8,0,0,1-2.94-1,3.82,3.82,0,0,1-.94-2.73V14.3h9.72V10A5.48,5.48,0,0,0,70,9.49a7,7,0,0,0-2.54-2,8.63,8.63,0,0,0-3.72-.74,9,9,0,0,0-3.51.65,7.16,7.16,0,0,0-2.59,1.86,8,8,0,0,0-1.59,2.89,12.56,12.56,0,0,0-.53,3.76,12.19,12.19,0,0,0,.55,3.8,7.66,7.66,0,0,0,1.64,2.89,7.34,7.34,0,0,0,2.65,1.84,9.36,9.36,0,0,0,3.58.65,11.16,11.16,0,0,0,4.29-.77,7.81,7.81,0,0,0,3.06-2.14l-2.47-3.08A10,10,0,0,1,67,20.6Z"/><path class="cls-2" d="M109.76,19.65H102.3V12.26h7.46Zm2.3-10.41a7,7,0,0,0-2.57-1.82,9.67,9.67,0,0,0-6.92,0A7,7,0,0,0,100,9.24a8.2,8.2,0,0,0-1.62,2.89,11.91,11.91,0,0,0-.57,3.81,11.89,11.89,0,0,0,.57,3.8A8.38,8.38,0,0,0,100,22.65a7,7,0,0,0,2.57,1.84,9.82,9.82,0,0,0,6.92,0,7,7,0,0,0,2.57-1.84,8.38,8.38,0,0,0,1.62-2.91,11.89,11.89,0,0,0,.57-3.8,11.91,11.91,0,0,0-.57-3.81A8.2,8.2,0,0,0,112.06,9.24Z"/><path class="cls-2" d="M128.28,19.61h-6.7V12.29H129v7.32ZM133.46,0h-5V10.12h-.17a4.05,4.05,0,0,0-1.68-2.4,5.06,5.06,0,0,0-3-.94,5.85,5.85,0,0,0-5,2.34q-1.7,2.34-1.7,6.82t1.7,6.83a5.84,5.84,0,0,0,5,2.35,5.16,5.16,0,0,0,1.61-.25,4.89,4.89,0,0,0,1.41-.7,4.64,4.64,0,0,0,1-1.07,4.22,4.22,0,0,0,.63-1.32h.17l5,3.82,2.57-3.78L133.46,20Z"/><polygon class="cls-2" points="89.93 17.1 89.83 17.1 87.59 12.43 81.21 1.4 80.44 1.4 75.66 1.4 73.46 1.4 73.46 6.29 75.66 6.29 75.66 24.72 80.44 24.72 80.44 9.02 80.54 9.02 82.78 13.7 89.16 24.72 94.7 24.72 94.7 1.4 89.93 1.4 89.93 17.1"/><polygon class="cls-2" points="17.7 5.91 17.7 1.4 0 1.4 0 5.91 0 6.29 6.31 6.29 6.31 24.72 11.39 24.72 11.39 6.29 17.7 6.29 17.7 5.91"/><path class="cls-2" d="M150.26,19.13a10,10,0,0,1-1.81,1.47,4.58,4.58,0,0,1-2.5.61,3.8,3.8,0,0,1-2.94-1,3.87,3.87,0,0,1-.94-2.73V14.3h9.73V10c-.12-.17-.23-.33-.36-.49a7,7,0,0,0-2.53-2,8.68,8.68,0,0,0-3.73-.74,9,9,0,0,0-3.51.65,7.25,7.25,0,0,0-2.59,1.86,7.85,7.85,0,0,0-1.58,2.89,12.24,12.24,0,0,0-.54,3.76,12.49,12.49,0,0,0,.55,3.8,7.8,7.8,0,0,0,1.64,2.89,7.3,7.3,0,0,0,2.66,1.84,9.31,9.31,0,0,0,3.57.65,11.13,11.13,0,0,0,4.29-.77,7.81,7.81,0,0,0,3.06-2.14Z"/></g></svg>